<svg width="698" height="674" viewBox="0 0 698 674" fill="none" xmlns="http://www.w3.org/2000/svg">
<path d="M655.832 574.459H467.266V571.792H653.157V447.785H655.832V574.459Z" fill="#E4E4E4" fill-opacity="0.3"/>
<path d="M44.6649 626.462H41.9902V499.788H230.557V502.455H44.6649V626.462Z" fill="#E4E4E4" fill-opacity="0.3"/>
<path d="M320.158 343.779H131.592V217.105H134.266V341.113H320.158V343.779Z" fill="#E4E4E4" fill-opacity="0.3"/>
<path d="M693.744 430.735C694.756 430.733 695.725 430.332 696.44 429.618C697.154 428.904 697.556 427.937 697.556 426.928C697.556 425.92 697.154 424.952 696.44 424.239C695.725 423.525 694.756 423.123 693.744 423.121H616.279C615.777 423.12 615.279 423.218 614.815 423.409C614.351 423.6 613.929 423.88 613.574 424.234C613.219 424.587 612.937 425.007 612.744 425.47C612.552 425.932 612.453 426.428 612.453 426.928C612.453 427.429 612.552 427.924 612.744 428.387C612.937 428.849 613.219 429.269 613.574 429.623C613.929 429.976 614.351 430.257 614.815 430.448C615.279 430.639 615.777 430.736 616.279 430.735H693.744Z" fill="#2F2E41" fill-opacity="0.3"/>
<path d="M693.744 408.303C694.756 408.301 695.725 407.899 696.44 407.185C697.154 406.471 697.556 405.504 697.556 404.496C697.556 403.487 697.154 402.52 696.44 401.806C695.725 401.092 694.756 400.69 693.744 400.688H616.279C615.777 400.688 615.279 400.785 614.815 400.976C614.351 401.167 613.929 401.447 613.574 401.801C613.219 402.155 612.937 402.575 612.744 403.037C612.552 403.499 612.453 403.995 612.453 404.496C612.453 404.996 612.552 405.492 612.744 405.954C612.937 406.417 613.219 406.837 613.574 407.19C613.929 407.544 614.351 407.824 614.815 408.015C615.279 408.206 615.777 408.304 616.279 408.303H693.744Z" fill="#2F2E41" fill-opacity="0.3"/>
<path d="M365.63 611.794C337.328 611.794 309.662 603.426 286.13 587.749C262.598 572.072 244.256 549.789 233.426 523.718C222.595 497.648 219.761 468.961 225.283 441.285C230.804 413.609 244.433 388.186 264.445 368.233C284.458 348.279 309.955 334.691 337.713 329.186C365.471 323.681 394.243 326.506 420.391 337.305C446.538 348.104 468.887 366.391 484.61 389.853C500.334 413.316 508.726 440.901 508.726 469.119C508.683 506.946 493.594 543.211 466.767 569.958C439.94 596.706 403.568 611.751 365.63 611.794ZM365.63 329.111C337.857 329.111 310.708 337.323 287.616 352.707C264.523 368.091 246.525 389.957 235.897 415.54C225.269 441.124 222.488 469.275 227.906 496.433C233.324 523.592 246.698 548.539 266.337 568.12C285.975 587.7 310.996 601.035 338.235 606.437C365.474 611.839 393.708 609.067 419.367 598.47C445.026 587.873 466.957 569.928 482.386 546.903C497.816 523.879 506.052 496.81 506.052 469.119C506.01 432 491.202 396.412 464.877 370.165C438.551 343.917 402.859 329.153 365.63 329.111Z" fill="#E4E4E4" fill-opacity="0.3"/>
<path d="M4.08012 643.512C3.06742 643.512 2.0962 643.913 1.38011 644.627C0.664024 645.341 0.261719 646.309 0.261719 647.319C0.261719 648.329 0.664024 649.297 1.38011 650.011C2.0962 650.725 3.06742 651.126 4.08012 651.126H81.546C82.5575 651.124 83.5268 650.722 84.2413 650.008C84.9559 649.295 85.3573 648.327 85.3573 647.319C85.3573 646.31 84.9559 645.343 84.2413 644.629C83.5268 643.916 82.5575 643.514 81.546 643.512H4.08012Z" fill="#2F2E41" fill-opacity="0.3"/>
<path d="M4.07945 665.944C3.57741 665.943 3.08012 666.041 2.61602 666.232C2.15193 666.423 1.73016 666.703 1.37483 667.057C1.0195 667.41 0.737567 667.83 0.545227 668.293C0.352888 668.755 0.253906 669.251 0.253906 669.751C0.253906 670.252 0.352888 670.748 0.545227 671.21C0.737567 671.672 1.0195 672.092 1.37483 672.446C1.73016 672.8 2.15193 673.08 2.61602 673.271C3.08012 673.462 3.57741 673.56 4.07945 673.559H81.5453C82.5568 673.557 83.5261 673.155 84.2407 672.441C84.9552 671.727 85.3566 670.76 85.3566 669.751C85.3566 668.743 84.9552 667.776 84.2407 667.062C83.5261 666.348 82.5568 665.946 81.5453 665.944H4.07945Z" fill="#2F2E41" fill-opacity="0.3"/>
<path d="M388.314 108.648C384.8 104.699 381.205 82.6769 376.718 80.4412C380.072 89.1225 377.637 91.421 377.619 100.949C377.661 106.359 377.121 111.753 376.013 117.005H300.002V47.5334C300.002 41.2912 301.052 35.1101 303.091 29.343C305.131 23.5759 308.121 18.3357 311.89 13.9218C315.659 9.50788 320.133 6.00658 325.057 3.61787C329.982 1.22915 335.26 -0.000183916 340.59 2.06379e-08C342.624 0.0465067 344.646 0.393028 346.606 1.03145C353.139 3.09721 359.094 7.1387 363.873 12.7505C368.651 18.3622 372.086 25.347 373.832 33.004C379.627 57.8085 388.843 99.0975 388.314 108.648Z" fill="#2F2E41"/>
<path d="M304.91 194.664L304.947 140.265L277.736 143.122L287.34 177.431L282.845 263.669C280.665 264.244 278.675 265.551 277.117 267.433C275.558 269.314 274.499 271.687 274.069 274.263C273.639 276.84 273.856 279.507 274.693 281.941C275.531 284.375 276.953 286.47 278.786 287.971C280.619 289.471 282.784 290.312 285.017 290.392C287.25 290.471 289.455 289.786 291.362 288.418C293.269 287.051 294.796 285.061 295.758 282.691C296.719 280.321 297.073 277.674 296.776 275.072L304.91 194.664Z" fill="#D08867"/>
<path d="M357.952 582.207L368.964 582.205L374.203 532.867H357.949L357.952 582.207Z" fill="#D08767"/>
<path d="M354.488 575.684L371.894 574.454V583.286L388.442 596.821C389.259 597.489 389.875 598.45 390.199 599.562C390.523 600.674 390.538 601.879 390.242 603.002C389.947 604.125 389.356 605.107 388.556 605.804C387.755 606.501 386.788 606.877 385.795 606.877H365.073L361.501 598.141L360.106 606.877H352.293L354.488 575.684Z" fill="#2F2E41"/>
<path d="M295.054 582.207L305.589 582.205L310.6 532.867H295.053L295.054 582.207Z" fill="#D08767"/>
<path d="M290.888 575.684L308.294 574.454V583.286L324.842 596.821C325.66 597.489 326.275 598.45 326.599 599.562C326.923 600.674 326.938 601.879 326.643 603.002C326.347 604.125 325.756 605.107 324.956 605.804C324.156 606.501 323.189 606.877 322.195 606.877H301.473L297.901 598.141L296.507 606.877H288.693L290.888 575.684Z" fill="#2F2E41"/>
<path d="M348.54 81.7627L325.892 82.2867L309.905 102.199L297.089 104.417C291.291 105.421 285.961 108.742 281.989 113.826C278.017 118.91 275.645 125.448 275.268 132.349L277.488 146.741H290.81L298.517 200.138C295.52 209.148 295.317 216.261 301.468 219.055L320.563 261.5L376.961 231.631C379.821 225.829 380.737 220.001 377.814 214.334L381.845 132.592H395.402C395.402 117.304 391.02 104.415 378.144 102.714C373.031 102.061 367.893 101.714 362.75 101.675L348.54 81.7627Z" fill="#E6E6E6"/>
<path d="M376.663 231.088C376.663 231.088 321.461 242.624 300.983 218.504C300.983 218.504 298.904 222.661 295.771 229.555C294.87 231.538 293.13 232.881 292.079 235.283C291.124 237.465 288.668 240.149 287.627 242.624C286.79 244.616 288.133 247.218 287.262 249.37C276.775 275.278 264.522 311.824 267.149 335.956C268.843 351.519 272.342 387.731 276.027 426.624C276.315 429.663 273.983 433.567 274.272 436.63C274.545 439.518 277.439 441.565 277.712 444.46C277.893 446.382 275.872 448.343 276.053 450.263C276.251 452.369 278.651 454.434 278.848 456.532C283.896 510.236 288.518 560.374 288.518 560.374H314.338L319.21 445.862L315.228 404.121L324.577 319.702L337.487 399.926L339.148 445.076L352.791 562.472H376.663V448.826L378.443 442.922L376.663 435.35L378.443 427.192L376.663 418.307V231.088Z" fill="#2F2E41"/>
<path d="M354.888 66.1593C351.362 71.6613 346.347 75.5887 340.669 77.2947C334.99 79.0006 328.986 78.3835 323.646 75.5448C318.305 72.706 313.947 67.8151 311.288 61.6774C308.63 55.5397 307.83 48.5212 309.02 41.7778C310.21 35.0344 313.319 28.9681 317.835 24.5781C322.351 20.1881 328.005 17.7361 333.866 17.626C339.727 17.5158 345.444 19.7539 350.078 23.9719C354.711 28.1898 357.984 34.1361 359.357 40.8313C359.431 41.1946 359.494 41.5558 359.555 41.9308C360.28 46.1274 360.239 50.4569 359.434 54.6335C358.63 58.81 357.08 62.7385 354.888 66.1593Z" fill="#D08867"/>
<path d="M349.518 49.1989C348.971 45.9301 347.588 42.9432 345.558 40.6484C345.758 43.7808 345.393 46.9281 344.487 49.8787C337.706 50.5938 330.894 48.987 324.854 45.2477C320.305 41.5726 314.515 41.8912 307.771 45.2477C307.771 41.3419 308.417 37.4743 309.672 33.8658C310.927 30.2572 312.767 26.9784 315.086 24.2167C317.405 21.4549 320.159 19.2642 323.19 17.7697C326.22 16.2753 329.468 15.5063 332.748 15.5068H337.208C343.832 15.5083 350.185 18.6421 354.868 24.2193C359.552 29.7965 362.184 37.3604 362.185 45.2477C358.069 47.0057 353.83 48.3279 349.518 49.1989Z" fill="#2F2E41"/>
<path d="M338.707 314.363H151.057C148.392 314.355 145.838 313.101 143.954 310.874C142.069 308.648 141.007 305.63 141 302.481V194.439C141.007 191.29 142.068 188.272 143.953 186.046C145.837 183.819 148.39 182.564 151.055 182.556H338.705C341.37 182.564 343.924 183.818 345.808 186.045C347.693 188.271 348.755 191.288 348.762 194.437V302.48C348.755 305.629 347.694 308.646 345.809 310.873C343.925 313.1 341.372 314.354 338.707 314.363Z" fill="white"/>
<path d="M338.707 314.363H151.057C148.392 314.355 145.838 313.101 143.954 310.874C142.069 308.648 141.007 305.63 141 302.481V194.439C141.007 191.29 142.068 188.272 143.953 186.046C145.837 183.819 148.39 182.564 151.055 182.556H338.705C341.37 182.564 343.924 183.818 345.808 186.045C347.693 188.271 348.755 191.288 348.762 194.437V302.48C348.755 305.629 347.694 308.646 345.809 310.873C343.925 313.1 341.372 314.354 338.707 314.363ZM151.057 185.87C149.135 185.877 147.294 186.782 145.935 188.388C144.576 189.994 143.811 192.17 143.805 194.441V302.48C143.811 304.75 144.577 306.926 145.936 308.532C147.295 310.137 149.136 311.042 151.058 311.048H338.704C340.626 311.042 342.468 310.137 343.827 308.531C345.186 306.925 345.951 304.749 345.957 302.478V194.439C345.951 192.168 345.185 189.992 343.826 188.387C342.467 186.781 340.626 185.877 338.704 185.871L151.057 185.87Z" fill="#3F3D56"/>
<path d="M255.175 298.734C218.221 298.734 179.688 298.317 165.311 298.046C163.419 298 161.618 297.083 160.291 295.49C158.965 293.896 158.218 291.754 158.211 289.519V200.258C158.212 199.458 158.481 198.691 158.959 198.124C159.438 197.558 160.087 197.238 160.764 197.235H329.493C330.171 197.236 330.82 197.554 331.3 198.119C331.779 198.684 332.05 199.45 332.053 200.25V260.812C332.021 270.698 328.71 280.175 322.83 287.211C316.95 294.247 308.97 298.281 300.601 298.448C287.202 298.654 271.335 298.734 255.175 298.734Z" fill="#655EDA"/>
<path d="M319.475 255.156H166.628C165.348 255.151 164.1 254.685 163.054 253.819C162.008 252.953 161.214 251.729 160.781 250.315L143.481 193.314C143.148 192.214 143.044 191.037 143.178 189.881C143.312 188.724 143.681 187.623 144.253 186.668C144.825 185.714 145.583 184.935 146.465 184.396C147.346 183.858 148.325 183.575 149.319 183.573L340.375 183.261C341.283 183.26 342.18 183.492 343.003 183.943C343.827 184.393 344.556 185.05 345.139 185.867C345.723 186.685 346.147 187.642 346.381 188.673C346.616 189.703 346.655 190.782 346.496 191.832L346.643 191.905L346.094 193.409L346.089 193.424L325.175 250.737C324.699 252.049 323.904 253.167 322.891 253.953C321.877 254.739 320.689 255.157 319.475 255.156ZM340.384 186.559L149.324 186.871C148.78 186.872 148.244 187.027 147.761 187.322C147.278 187.617 146.862 188.044 146.549 188.566C146.236 189.089 146.034 189.692 145.96 190.326C145.886 190.959 145.943 191.604 146.126 192.206L163.425 249.205C163.663 249.98 164.098 250.65 164.671 251.125C165.245 251.599 165.928 251.855 166.63 251.858H319.475C320.139 251.858 320.789 251.629 321.344 251.199C321.899 250.769 322.333 250.157 322.594 249.439L343.508 192.124C343.73 191.517 343.82 190.855 343.77 190.196C343.72 189.538 343.532 188.905 343.222 188.353C342.912 187.802 342.491 187.349 341.995 187.036C341.5 186.723 340.946 186.559 340.384 186.559Z" fill="#3F3D56"/>
<path d="M244.881 267.139C251.515 267.139 256.894 260.828 256.894 253.042C256.894 245.257 251.515 238.945 244.881 238.945C238.246 238.945 232.867 245.257 232.867 253.042C232.867 260.828 238.246 267.139 244.881 267.139Z" fill="white"/>
<path d="M394.658 182.052L394.695 127.578L367.475 130.44L377.081 164.796L342.21 226.981C340.029 227.556 338.038 228.866 336.479 230.75C334.92 232.633 333.861 235.01 333.43 237.59C333 240.17 333.217 242.841 334.055 245.278C334.893 247.715 336.315 249.813 338.149 251.316C339.983 252.818 342.149 253.661 344.383 253.74C346.616 253.82 348.822 253.133 350.729 251.764C352.637 250.395 354.165 248.402 355.127 246.029C356.089 243.656 356.443 241.005 356.146 238.399L394.658 182.052Z" fill="#D08867"/>
<path d="M612.49 217.495L580.515 168.47C578.959 166.064 577.112 164.16 575.081 162.865C573.049 161.57 570.873 160.91 568.678 160.924H568.565C566.353 160.934 564.164 161.625 562.124 162.958C560.085 164.291 558.236 166.238 556.685 168.688C549.536 179.925 545.469 195.028 545.341 210.824C545.213 226.62 549.032 241.878 555.997 253.391C556.334 253.958 556.685 254.504 557.036 255.049C558.981 258.051 561.128 260.719 563.44 263.009C569.761 269.352 577.132 272.708 584.658 272.67H584.897C590.062 272.643 595.173 271.025 599.934 267.911C604.694 264.796 609.01 260.247 612.631 254.525C615.769 249.582 617.516 242.907 617.49 235.965C617.463 229.023 615.665 222.381 612.49 217.495ZM610.637 251.45C604.7 260.738 596.883 266.564 588.504 267.947C580.124 269.329 571.694 266.183 564.633 259.04C562.614 256.964 560.728 254.591 559.002 251.952C552.112 241.384 548.208 227 548.147 211.961C548.087 196.923 551.875 182.463 558.679 171.763C559.973 169.716 561.515 168.089 563.217 166.977C564.919 165.865 566.747 165.29 568.593 165.286H568.678C570.506 165.276 572.317 165.825 574.009 166.903C575.7 167.981 577.238 169.565 578.535 171.567L610.51 220.613C613.157 224.679 614.657 230.21 614.681 235.991C614.705 241.773 613.25 247.333 610.637 251.45Z" fill="#3F3D56"/>
<path d="M502.822 56.5928L470.847 7.54575C467.7 2.69625 463.443 -0.017256 459.009 8.25827e-05H458.911C456.695 0.013922 454.504 0.70902 452.462 2.04528C450.421 3.38154 448.57 5.33252 447.017 7.78555C441.106 17.1079 437.274 29.1252 436.081 42.0763C434.888 55.0274 436.398 68.2314 440.389 79.7531L440.403 79.7749C442.049 84.4875 444.094 88.8369 446.483 92.7073C446.75 93.187 447.059 93.6668 447.368 94.1466C454.71 105.466 464.643 111.803 474.99 111.768H475.242C480.409 111.734 485.519 110.112 490.28 106.994C495.04 103.876 499.355 99.3239 502.976 93.6014C504.531 91.1558 505.76 88.2584 506.594 85.0749C507.428 81.8913 507.849 78.4839 507.835 75.0473C507.821 71.6106 507.371 68.2121 506.51 65.0456C505.65 61.8791 504.397 59.0069 502.822 56.5928ZM500.968 90.5483C497.607 95.8585 493.602 100.082 489.184 102.976C484.766 105.869 480.023 107.375 475.228 107.406H474.99C467.789 107.402 460.75 104.091 454.758 97.8903C448.765 91.6894 444.088 82.8754 441.313 72.5566C438.538 62.2379 437.789 50.8752 439.161 39.8975C440.533 28.9198 443.965 18.8174 449.025 10.8607C451.643 6.75014 455.204 4.42078 458.927 4.38398C462.649 4.34718 466.229 6.60589 468.881 10.6643L500.856 59.6895C503.501 63.7623 504.999 69.2981 505.02 75.0829C505.041 80.8677 503.584 86.4293 500.968 90.5483Z" fill="#3F3D56"/>
<path d="M607.624 243.776C611.833 237.158 611.785 228.691 607.502 222.121L579.284 178.838C576.972 175.301 573.851 173.331 570.606 173.363C567.361 173.394 564.256 175.423 561.973 179.005C559.117 183.486 556.857 188.797 555.324 194.636C553.79 200.474 553.013 206.724 553.036 213.029C553.059 219.334 553.881 225.57 555.457 231.381C557.033 237.191 559.331 242.463 562.22 246.893C565.108 251.324 568.531 254.827 572.292 257.202C576.053 259.577 580.078 260.778 584.138 260.735C588.198 260.692 592.212 259.407 595.952 256.954C599.692 254.5 603.084 250.925 605.933 246.434L607.624 243.776Z" fill="#655EDA"/>
<path d="M499.608 75.3977C501.179 69.3546 500.108 62.9286 496.662 57.7216L470.327 17.9252C468.015 14.3875 464.894 12.4183 461.649 12.4496C458.404 12.4809 455.299 14.5101 453.016 18.0921C450.16 22.5731 447.9 27.8845 446.367 33.7225C444.833 39.5605 444.056 45.8107 444.079 52.1157C444.102 58.4207 444.924 64.6568 446.5 70.4676C448.076 76.2783 450.374 81.5497 453.263 85.9803C456.151 90.411 459.574 93.914 463.335 96.289C467.096 98.664 471.121 99.8646 475.181 99.8219C479.241 99.7793 483.255 98.4944 486.995 96.0406C489.524 94.3815 491.893 92.2102 494.043 89.5897C496.153 87.0192 497.402 83.8826 498.239 80.6644L499.608 75.3977Z" fill="#655EDA"/>
<path d="M571.042 266.586L570.199 270.031C566.239 267.698 562.401 265.357 558.684 263.009C492.852 221.29 461.425 172.461 440.403 79.7752L440.389 79.7534C439.392 75.3917 438.423 70.9284 437.482 66.3632L439.701 65.251C440.443 69.6414 441.528 73.8745 442.931 77.8562C444.082 82.9375 445.267 87.888 446.484 92.7077C466.242 170.934 495.38 215.641 551.242 253.392C554.05 255.289 556.929 257.172 559.878 259.04C563.302 262.505 567.075 265.055 571.042 266.586Z" fill="#3F3D56"/>
<path d="M470.261 107.799L468.287 110.903L541.222 222.775L543.196 219.671L470.261 107.799Z" fill="#3F3D56"/>
</svg>
