<svg width="230" height="225" viewBox="0 0 230 225" fill="none" xmlns="http://www.w3.org/2000/svg">
<path d="M229.5 112.5C229.5 174.346 178.247 224.5 115 224.5C51.753 224.5 0.5 174.346 0.5 112.5C0.5 50.6544 51.753 0.5 115 0.5C178.247 0.5 229.5 50.6544 229.5 112.5Z" stroke="#078247"/>
<ellipse cx="115.401" cy="112.5" rx="75.1923" ry="75.8152" fill="#57CB94" fill-opacity="0.4"/>
<path d="M102.412 99.4332L84.8745 99.7231C83.8409 99.7401 82.8425 99.3678 82.0989 98.6879C81.3552 98.0081 80.9273 97.0764 80.9093 96.0978L80.6032 79.4943C80.5851 78.5158 80.9784 77.5705 81.6965 76.8665C82.4146 76.1625 83.3987 75.7574 84.4323 75.7403C85.4659 75.7232 86.4644 76.0956 87.208 76.7754C87.9516 77.4553 88.3795 78.387 88.3976 79.3655L88.6356 92.2793L102.276 92.0539C103.309 92.0368 104.308 92.4092 105.051 93.0891C105.795 93.7689 106.223 94.7006 106.241 95.6792C106.259 96.6577 105.866 97.603 105.148 98.307C104.43 99.0111 103.445 99.4162 102.412 99.4332Z" fill="#0CA85D"/>
<path d="M150.489 115.646C149.456 115.663 148.457 115.29 147.714 114.611C146.97 113.931 146.542 112.999 146.524 112.02C146.407 105.525 144.029 99.2475 139.759 94.1622C135.489 89.077 129.565 85.4683 122.907 83.8962C116.249 82.3241 109.229 82.8765 102.937 85.4675C96.6445 88.0586 91.4313 92.5436 88.1062 98.2264C87.604 99.0819 86.7634 99.7135 85.7693 99.9822C84.7753 100.251 83.7092 100.135 82.8055 99.6593C81.9019 99.1838 81.2348 98.388 80.951 97.4468C80.6672 96.5057 80.7898 95.4964 81.2921 94.6409C85.4503 87.5384 91.9681 81.9337 99.8343 78.6962C107.7 75.4587 116.475 74.7695 124.797 76.7354C133.12 78.7013 140.524 83.2125 145.862 89.569C151.199 95.9256 154.172 103.772 154.319 111.892C154.337 112.87 153.943 113.815 153.225 114.519C152.507 115.224 151.523 115.629 150.489 115.646ZM146.717 148.925C145.684 148.942 144.685 148.57 143.942 147.89C143.198 147.21 142.77 146.278 142.752 145.3L142.514 132.386L128.874 132.611C127.84 132.629 126.842 132.256 126.098 131.576C125.355 130.896 124.927 129.965 124.909 128.986C124.891 128.008 125.284 127.062 126.002 126.358C126.72 125.654 127.704 125.249 128.738 125.232L146.275 124.942C147.309 124.925 148.307 125.298 149.051 125.977C149.794 126.657 150.222 127.589 150.24 128.568L150.547 145.171C150.565 146.15 150.171 147.095 149.453 147.799C148.735 148.503 147.751 148.908 146.717 148.925Z" fill="#0CA85D"/>
<path d="M115.72 149.355C105.388 149.514 95.4105 145.787 87.9771 138.991C80.5436 132.195 76.2608 122.885 76.068 113.103C76.05 112.124 76.4433 111.179 77.1614 110.475C77.8795 109.771 78.8636 109.366 79.8972 109.349C80.9308 109.332 81.9292 109.704 82.6728 110.384C83.4165 111.064 83.8444 111.995 83.8624 112.974C83.9792 119.469 86.3572 125.747 90.6275 130.832C94.8978 135.917 100.821 139.526 107.479 141.098C114.137 142.67 121.157 142.118 127.45 139.527C133.742 136.936 138.955 132.451 142.28 126.768C142.529 126.344 142.863 125.971 143.264 125.67C143.665 125.369 144.125 125.145 144.617 125.012C145.11 124.879 145.625 124.839 146.133 124.895C146.642 124.95 147.134 125.1 147.581 125.335C148.029 125.571 148.423 125.887 148.741 126.267C149.059 126.646 149.295 127.082 149.436 127.548C149.576 128.014 149.618 128.501 149.56 128.983C149.501 129.464 149.343 129.93 149.095 130.354C145.77 136.005 140.94 140.734 135.084 144.068C129.228 147.402 122.552 149.225 115.72 149.355Z" fill="#0CA85D"/>
</svg>
