<svg width="230" height="225" viewBox="0 0 230 225" fill="none" xmlns="http://www.w3.org/2000/svg">
<path d="M229.5 112.5C229.5 174.346 178.247 224.5 115 224.5C51.753 224.5 0.5 174.346 0.5 112.5C0.5 50.6544 51.753 0.5 115 0.5C178.247 0.5 229.5 50.6544 229.5 112.5Z" stroke="#A12485"/>
<ellipse cx="115.401" cy="112.5" rx="75.1923" ry="75.8152" fill="#A12485" fill-opacity="0.19"/>
<path fill-rule="evenodd" clip-rule="evenodd" d="M72 75V147.333H129.211V142.167H77.1111V80.1667H146.111V85.6433H151.222V75H72ZM151.222 100.833C151.222 102.204 150.683 103.518 149.725 104.487C148.766 105.456 147.466 106 146.111 106C144.755 106 143.455 105.456 142.497 104.487C141.538 103.518 141 102.204 141 100.833C141 99.463 141.538 98.1489 142.497 97.1799C143.455 96.211 144.755 95.6667 146.111 95.6667C147.466 95.6667 148.766 96.211 149.725 97.1799C150.683 98.1489 151.222 99.463 151.222 100.833ZM156.333 100.833C156.333 103.574 155.256 106.202 153.339 108.14C151.422 110.078 148.822 111.167 146.111 111.167C143.4 111.167 140.8 110.078 138.883 108.14C136.966 106.202 135.889 103.574 135.889 100.833C135.889 98.0928 136.966 95.4644 138.883 93.5266C140.8 91.5887 143.4 90.5 146.111 90.5C148.822 90.5 151.422 91.5887 153.339 93.5266C155.256 95.4644 156.333 98.0928 156.333 100.833Z" fill="#A12485"/>
<path fill-rule="evenodd" clip-rule="evenodd" d="M133.569 115.894C134.994 114.519 136.889 113.751 138.859 113.75H149.291C153.032 113.75 156.515 115.036 159.198 117.599C161.78 120.064 163.124 123.223 163.673 126.217C164.537 130.924 163.643 136.067 161.442 140.627V161.542C161.442 163.162 160.84 164.724 159.754 165.916C158.668 167.108 157.178 167.845 155.58 167.978C153.983 168.112 152.393 167.633 151.128 166.638C149.863 165.642 149.015 164.202 148.751 162.603L147.387 154.326L146.022 162.603C145.759 164.202 144.91 165.642 143.645 166.638C142.38 167.633 140.791 168.112 139.193 167.978C137.595 167.845 136.106 167.108 135.02 165.916C133.934 164.724 133.331 163.162 133.331 161.542V137.24C132.166 137.921 130.844 138.279 129.498 138.279H116.46C114.426 138.279 112.476 137.462 111.038 136.009C109.601 134.555 108.793 132.584 108.793 130.529C108.793 128.473 109.601 126.502 111.038 125.049C112.476 123.595 114.426 122.779 116.46 122.779H126.426L133.569 115.894ZM138.442 145.977V161.542C138.443 161.865 138.564 162.177 138.781 162.414C138.998 162.652 139.296 162.799 139.615 162.825C139.934 162.852 140.251 162.757 140.504 162.558C140.757 162.36 140.927 162.073 140.98 161.753L143.645 145.592C143.745 144.989 144.052 144.441 144.514 144.045C144.975 143.65 145.56 143.433 146.165 143.432H148.608C149.213 143.433 149.798 143.65 150.26 144.045C150.721 144.441 151.029 144.989 151.128 145.592L153.794 161.753C153.847 162.073 154.017 162.36 154.27 162.558C154.522 162.757 154.84 162.852 155.159 162.825C155.478 162.799 155.775 162.652 155.992 162.414C156.209 162.177 156.33 161.865 156.331 161.542V140.012C156.331 139.599 156.429 139.191 156.617 138.824C158.59 134.975 159.308 130.756 158.649 127.16C158.248 124.975 157.31 122.903 155.69 121.355C154.036 119.777 151.844 118.917 149.291 118.917H138.861C138.205 118.917 137.571 119.172 137.096 119.63L129.214 127.23C128.739 127.689 128.108 127.945 127.451 127.945H116.46C115.782 127.945 115.132 128.218 114.653 128.702C114.173 129.187 113.904 129.844 113.904 130.529C113.904 131.214 114.173 131.871 114.653 132.355C115.132 132.84 115.782 133.112 116.46 133.112H129.498C130.155 133.112 130.786 132.855 131.261 132.396L134.124 129.637C134.486 129.289 134.941 129.055 135.433 128.965C135.926 128.875 136.433 128.934 136.893 129.133C137.353 129.332 137.745 129.663 138.02 130.085C138.296 130.507 138.442 131.002 138.442 131.508V145.98V145.977Z" fill="#A12485"/>
</svg>
