<svg width="230" height="225" viewBox="0 0 230 225" fill="none" xmlns="http://www.w3.org/2000/svg">
<path d="M229.5 112.5C229.5 174.346 178.247 224.5 115 224.5C51.753 224.5 0.5 174.346 0.5 112.5C0.5 50.6544 51.753 0.5 115 0.5C178.247 0.5 229.5 50.6544 229.5 112.5Z" stroke="#B8AD7D"/>
<ellipse cx="115.407" cy="112.5" rx="75.1923" ry="75.8152" fill="#9D5500" fill-opacity="0.4"/>
<path d="M94.2727 150H140.727M103.421 92.0008L110.462 99.1385M110.462 99.1385C112.329 97.246 114.86 96.1818 117.5 96.1818M110.462 99.1385C108.595 101.031 107.545 103.596 107.545 106.273M107.545 106.273H97.5909M107.545 106.273C107.545 108.949 108.595 111.515 110.462 113.407M110.462 113.407L103.421 120.545M110.462 113.407C112.329 115.299 114.86 116.364 117.5 116.364M117.5 116.364V126.455M117.5 116.364C120.14 116.364 122.671 115.299 124.538 113.407M124.538 113.407L131.579 120.545M124.538 113.407C126.405 111.515 127.455 108.949 127.455 106.273M137.409 106.273H127.455M127.455 106.273C127.455 103.596 126.405 101.031 124.538 99.1385M131.579 92.0008L124.538 99.1385M124.538 99.1385C122.671 97.246 120.14 96.1818 117.5 96.1818M117.5 96.1818V86.0909M81 136.545H154V76H81V136.545ZM104.227 150H130.773V136.545H104.227V150Z" stroke="#7B3F00" stroke-width="5"/>
</svg>
